<?xml version="1.0" encoding="UTF-8" standalone="no"?>
<!-- Created with Inkscape (http://www.inkscape.org/) -->

<svg
   xmlns:dc="http://purl.org/dc/elements/1.1/"
   xmlns:cc="http://creativecommons.org/ns#"
   xmlns:rdf="http://www.w3.org/1999/02/22-rdf-syntax-ns#"
   xmlns:svg="http://www.w3.org/2000/svg"
   xmlns="http://www.w3.org/2000/svg"
   xmlns:sodipodi="http://sodipodi.sourceforge.net/DTD/sodipodi-0.dtd"
   xmlns:inkscape="http://www.inkscape.org/namespaces/inkscape"
   width="210mm"
   height="297mm"
   viewBox="0 0 744.09448819 1052.3622047"
   id="svg2"
   version="1.1"
   inkscape:version="0.91pre4 r13712"
   sodipodi:docname="gluelessbox.svg">
  <defs
     id="defs4">
    <clipPath
       id="clipPath3350"
       clipPathUnits="userSpaceOnUse">
      <path
         inkscape:connector-curvature="0"
         id="path3352"
         d="M 0,864 1728,864 1728,0 0,0 0,864 Z" />
    </clipPath>
    <clipPath
       id="clipPath3374"
       clipPathUnits="userSpaceOnUse">
      <path
         inkscape:connector-curvature="0"
         id="path3376"
         d="M 0,864 1728,864 1728,0 0,0 0,864 Z" />
    </clipPath>
  </defs>
  <sodipodi:namedview
     id="base"
     pagecolor="#ffffff"
     bordercolor="#666666"
     borderopacity="1.0"
     inkscape:pageopacity="0.0"
     inkscape:pageshadow="2"
     inkscape:zoom="1.4142136"
     inkscape:cx="533.98381"
     inkscape:cy="764.12753"
     inkscape:document-units="px"
     inkscape:current-layer="g3344"
     showgrid="false"
     inkscape:window-width="1920"
     inkscape:window-height="1017"
     inkscape:window-x="1912"
     inkscape:window-y="-8"
     inkscape:window-maximized="1" />
  <metadata
     id="metadata7">
    <rdf:RDF>
      <cc:Work
         rdf:about="">
        <dc:format>image/svg+xml</dc:format>
        <dc:type
           rdf:resource="http://purl.org/dc/dcmitype/StillImage" />
        <dc:title></dc:title>
      </cc:Work>
    </rdf:RDF>
  </metadata>
  <g
     inkscape:label="Layer 1"
     inkscape:groupmode="layer"
     id="layer1">
    <g
       transform="matrix(1.25,0,0,-1.25,16.300421,1088.1212)"
       inkscape:label="GluelessBox"
       id="g3344">
      <g
         transform="matrix(0.5,0,0,0.5,9.6301791,857.26218)"
         id="g3354">
        <path
           inkscape:connector-curvature="0"
           id="path3356"
           style="fill:none;stroke:#ff0000;stroke-width:1;stroke-linecap:butt;stroke-linejoin:miter;stroke-miterlimit:10;stroke-dasharray:none;stroke-opacity:1"
           d="m 0,0 0,-260.333 143,0 0,-9 -143,0 0,-18.786 260.664,0.059 0,144 9,0 0,-144 18.455,-0.059 -0.06,261.119 -144,0 0,9 144,0 0.06,18 L 28,0 28,-144 19,-144 19,0 0,0 Z" />
      </g>
      <g
         transform="matrix(0.5,0,0,0.5,18.962479,572.26218)"
         id="g3358">
        <path
           inkscape:connector-curvature="0"
           id="path3360"
           style="fill:none;stroke:#ff0000;stroke-width:1;stroke-linecap:butt;stroke-linejoin:miter;stroke-miterlimit:10;stroke-dasharray:none;stroke-opacity:1"
           d="m 0,0 0,144.535 9,0 L 9,0 l 231.333,0 0,144.535 9,0 0,-144.535 20.062,0 0,270 -288,0 0,-270 L 0,0 Z" />
      </g>
      <g
         transform="matrix(0.5,0,0,0.5,160.63018,857.26218)"
         id="g3362">
        <path
           inkscape:connector-curvature="0"
           id="path3364"
           style="fill:none;stroke:#ff0000;stroke-width:1;stroke-linecap:butt;stroke-linejoin:miter;stroke-miterlimit:10;stroke-dasharray:none;stroke-opacity:1"
           d="m 0,0 0,-260.334 143,0 0,-9 -143,0 0,-18.785 260.664,0.059 0,144 9,0 0,-144 18.455,-0.059 -0.06,261.119 -144,0 0,9 144,0 0.06,18 L 28,0 28,-144 19,-144 19,0 0,0 Z" />
      </g>
      <g
         transform="matrix(0.5,0,0,0.5,169.71268,451.73288)"
         id="g3366">
        <path
           inkscape:connector-curvature="0"
           id="path3368"
           style="fill:none;stroke:#ff0000;stroke-width:1;stroke-linecap:butt;stroke-linejoin:miter;stroke-miterlimit:10;stroke-dasharray:none;stroke-opacity:1"
           d="m 0,0 0,144.535 9,0 L 9,0 l 231.333,0 0,144.535 9,0 0,-144.535 20.062,0 1,229.059 -288,0 L -18.605,0 0,0 Z" />
      </g>
      <g
         id="g3370"
         transform="matrix(0.5,0,0,0.5,9.6301791,425.26218)">
        <g
           clip-path="url(#clipPath3374)"
           id="g3372">
          <g
             transform="translate(18.6646,12)"
             id="g3378">
            <path
               inkscape:connector-curvature="0"
               id="path3380"
               style="fill:none;stroke:#ff0000;stroke-width:1;stroke-linecap:butt;stroke-linejoin:miter;stroke-miterlimit:10;stroke-dasharray:none;stroke-opacity:1"
               d="m 0,0 0,144.535 9,0 L 9,0 l 231.333,0 0,144.535 9,0 0,-144.535 20.062,0 0,270 -288,0 0,-270 L 0,0 Z" />
          </g>
        </g>
      </g>
      <g
         transform="matrix(0.5,0,0,0.5,169.96248,572.26218)"
         id="g3382">
        <path
           inkscape:connector-curvature="0"
           id="path3384"
           style="fill:none;stroke:#ff0000;stroke-width:1;stroke-linecap:butt;stroke-linejoin:miter;stroke-miterlimit:10;stroke-dasharray:none;stroke-opacity:1"
           d="m 0,0 0,144.535 9,0 L 9,0 l 231.333,0 0,144.535 9,0 0,-144.535 20.062,0 0,270 -288,0 0,-270 L 0,0 Z" />
      </g>
      <text
         xml:space="preserve"
         style="font-style:normal;font-variant:normal;font-weight:normal;font-stretch:normal;font-size:144px;line-height:125%;font-family:FabFont;-inkscape-font-specification:FabFont;letter-spacing:0px;word-spacing:0px;fill:#000000;fill-opacity:1;stroke:none;stroke-width:1px;stroke-linecap:butt;stroke-linejoin:miter;stroke-opacity:1"
         x="67.980347"
         y="-757.87201"
         id="text3407"
         sodipodi:linespacing="125%"
         transform="scale(1,-1)"><tspan
           sodipodi:role="line"
           id="tspan3409"
           x="67.980347"
           y="-757.87201"
           style="font-size:72px">1</tspan></text>
      <text
         xml:space="preserve"
         style="font-style:normal;font-variant:normal;font-weight:normal;font-stretch:normal;font-size:144px;line-height:125%;font-family:FabFont;-inkscape-font-specification:FabFont;letter-spacing:0px;word-spacing:0px;fill:#000000;fill-opacity:1;stroke:none;stroke-width:1px;stroke-linecap:butt;stroke-linejoin:miter;stroke-opacity:1"
         x="206.74034"
         y="-757.87201"
         id="text3407-3"
         sodipodi:linespacing="125%"
         transform="scale(1,-1)"><tspan
           sodipodi:role="line"
           id="tspan3409-1"
           x="206.74034"
           y="-757.87201"
           style="font-size:72px">2</tspan></text>
      <text
         xml:space="preserve"
         style="font-style:normal;font-variant:normal;font-weight:normal;font-stretch:normal;font-size:144px;line-height:125%;font-family:FabFont;-inkscape-font-specification:FabFont;letter-spacing:0px;word-spacing:0px;fill:#000000;fill-opacity:1;stroke:none;stroke-width:1px;stroke-linecap:butt;stroke-linejoin:miter;stroke-opacity:1"
         x="55.739979"
         y="-612.40216"
         id="text3407-0"
         sodipodi:linespacing="125%"
         transform="scale(1,-1)"><tspan
           sodipodi:role="line"
           id="tspan3409-6"
           x="55.739979"
           y="-612.40216"
           style="font-size:72px">3</tspan></text>
      <text
         xml:space="preserve"
         style="font-style:normal;font-variant:normal;font-weight:normal;font-stretch:normal;font-size:144px;line-height:125%;font-family:FabFont;-inkscape-font-specification:FabFont;letter-spacing:0px;word-spacing:0px;fill:#000000;fill-opacity:1;stroke:none;stroke-width:1px;stroke-linecap:butt;stroke-linejoin:miter;stroke-opacity:1"
         x="206.73997"
         y="-612.40216"
         id="text3407-1"
         sodipodi:linespacing="125%"
         transform="scale(1,-1)"><tspan
           sodipodi:role="line"
           id="tspan3409-9"
           x="206.73997"
           y="-612.40216"
           style="font-size:72px">4</tspan></text>
      <text
         xml:space="preserve"
         style="font-style:normal;font-variant:normal;font-weight:normal;font-stretch:normal;font-size:144px;line-height:125%;font-family:FabFont;-inkscape-font-specification:FabFont;letter-spacing:0px;word-spacing:0px;fill:#000000;fill-opacity:1;stroke:none;stroke-width:1px;stroke-linecap:butt;stroke-linejoin:miter;stroke-opacity:1"
         x="55.850079"
         y="-471.40219"
         id="text3407-2"
         sodipodi:linespacing="125%"
         transform="scale(1,-1)"><tspan
           sodipodi:role="line"
           id="tspan3409-17"
           x="55.850079"
           y="-471.40219"
           style="font-size:72px">5</tspan></text>
      <text
         xml:space="preserve"
         style="font-style:normal;font-variant:normal;font-weight:normal;font-stretch:normal;font-size:144px;line-height:125%;font-family:FabFont;-inkscape-font-specification:FabFont;letter-spacing:0px;word-spacing:0px;fill:#000000;fill-opacity:1;stroke:none;stroke-width:1px;stroke-linecap:butt;stroke-linejoin:miter;stroke-opacity:1"
         x="206.74017"
         y="-471.40219"
         id="text3407-8"
         sodipodi:linespacing="125%"
         transform="scale(1,-1)"><tspan
           sodipodi:role="line"
           id="tspan3409-4"
           x="206.74017"
           y="-471.40219"
           style="font-size:72px">6</tspan></text>
    </g>
  </g>
</svg>
