<?xml version="1.0" encoding="UTF-8" standalone="no"?>
<svg
   xmlns:dc="http://purl.org/dc/elements/1.1/"
   xmlns:cc="http://creativecommons.org/ns#"
   xmlns:rdf="http://www.w3.org/1999/02/22-rdf-syntax-ns#"
   xmlns:svg="http://www.w3.org/2000/svg"
   xmlns="http://www.w3.org/2000/svg"
   xmlns:sodipodi="http://sodipodi.sourceforge.net/DTD/sodipodi-0.dtd"
   xmlns:inkscape="http://www.inkscape.org/namespaces/inkscape"
   version="1.1"
   width="6.5in"
   height="4.5in"
   viewBox=" 0 0 585 405"
   id="svg2"
   inkscape:version="0.91pre4 r13712"
   sodipodi:docname="tslotbox.svg">
  <metadata
     id="metadata32">
    <rdf:RDF>
      <cc:Work
         rdf:about="">
        <dc:format>image/svg+xml</dc:format>
        <dc:type
           rdf:resource="http://purl.org/dc/dcmitype/StillImage" />
        <dc:title></dc:title>
      </cc:Work>
    </rdf:RDF>
  </metadata>
  <defs
     id="defs30" />
  <sodipodi:namedview
     pagecolor="#ffffff"
     bordercolor="#666666"
     borderopacity="1"
     objecttolerance="10"
     gridtolerance="10"
     guidetolerance="10"
     inkscape:pageopacity="0"
     inkscape:pageshadow="2"
     inkscape:window-width="1920"
     inkscape:window-height="1017"
     id="namedview28"
     showgrid="false"
     inkscape:zoom="1.47465"
     inkscape:cx="317.68933"
     inkscape:cy="251.36378"
     inkscape:window-x="-8"
     inkscape:window-y="-8"
     inkscape:window-maximized="1"
     inkscape:current-layer="svg2" />
  <!-- Front-->
  <g
     transform="translate(22.5, 22.5) "
     id="g4">
    <polygon
       style="stroke:#000000; fill:none; stroke-width:0.9"
       points="10.62, 0 38.25000000000001, 0 38.25000000000001, 10.62 52.155000000000015, 10.62 52.155000000000015, 15.749999999999998 45.945000000000014, 15.749999999999998 45.945000000000014, 24.93 52.155000000000015, 24.93 52.155000000000015, 34.11 62.59500000000001, 34.11 62.59500000000001, 24.93 68.805, 24.93 68.805, 15.749999999999998 62.59500000000001, 15.749999999999998 62.59500000000001, 10.62 76.50000000000001, 10.62 76.50000000000001, 0 103.50000000000001, 0 103.50000000000001, 10.62 117.40500000000002, 10.62 117.40500000000002, 15.749999999999998 111.19500000000002, 15.749999999999998 111.19500000000002, 24.93 117.40500000000002, 24.93 117.40500000000002, 34.11 127.84500000000001, 34.11 127.84500000000001, 24.93 134.055, 24.93 134.055, 15.749999999999998 127.84500000000001, 15.749999999999998 127.84500000000001, 10.62 141.75000000000003, 10.62 141.75000000000003, 0 169.38, 0 169.38, 38.25000000000001 180, 38.25000000000001 180, 50.805000000000014 166.86, 50.805000000000014 166.86, 63.945000000000014 180, 63.945000000000014 180, 76.50000000000001 169.38, 76.50000000000001 169.38, 103.50000000000001 180, 103.50000000000001 180, 116.05500000000002 166.86, 116.05500000000002 166.86, 129.19500000000002 180, 129.19500000000002 180, 141.75000000000003 169.38, 141.75000000000003 169.38000000000002, 180 141.75000000000003, 180 141.75000000000003, 169.38 127.84500000000001, 169.38 127.84500000000001, 164.25 134.055, 164.25 134.055, 155.07 127.84500000000001, 155.07 127.84500000000001, 145.89 117.40500000000002, 145.89 117.40500000000002, 155.07 111.19500000000002, 155.07 111.19500000000002, 164.25 117.40500000000002, 164.25 117.40500000000002, 169.38 103.50000000000001, 169.38 103.50000000000001, 180 76.50000000000001, 180 76.50000000000001, 169.38 62.59500000000001, 169.38 62.59500000000001, 164.25 68.805, 164.25 68.805, 155.07 62.59500000000001, 155.07 62.59500000000001, 145.89 52.155000000000015, 145.89 52.155000000000015, 155.07 45.945000000000014, 155.07 45.945000000000014, 164.25 52.155000000000015, 164.25 52.155000000000015, 169.38 38.25000000000001, 169.38 38.25000000000001, 180 10.62, 180.00000000000003 10.62, 141.75000000000003 0, 141.75000000000003 0, 129.19500000000002 13.139999999999999, 129.19500000000002 13.139999999999999, 116.05500000000002 0, 116.05500000000002 0, 103.50000000000001 10.62, 103.50000000000001 10.62, 76.50000000000001 0, 76.50000000000001 0, 63.945000000000014 13.139999999999999, 63.945000000000014 13.139999999999999, 50.805000000000014 0, 50.805000000000014 0, 38.25000000000001 10.62, 38.25000000000001 "
       id="polygon6" />
  </g>
  <!-- Back-->
  <g
     transform="translate(202.5, 22.5) "
     id="g8">
    <polygon
       style="stroke:#000000; fill:none; stroke-width:0.9"
       points="10.62, 0 38.25000000000001, 0 38.25000000000001, 10.62 52.155000000000015, 10.62 52.155000000000015, 15.749999999999998 45.945000000000014, 15.749999999999998 45.945000000000014, 24.93 52.155000000000015, 24.93 52.155000000000015, 34.11 62.59500000000001, 34.11 62.59500000000001, 24.93 68.805, 24.93 68.805, 15.749999999999998 62.59500000000001, 15.749999999999998 62.59500000000001, 10.62 76.50000000000001, 10.62 76.50000000000001, 0 103.50000000000001, 0 103.50000000000001, 10.62 117.40500000000002, 10.62 117.40500000000002, 15.749999999999998 111.19500000000002, 15.749999999999998 111.19500000000002, 24.93 117.40500000000002, 24.93 117.40500000000002, 34.11 127.84500000000001, 34.11 127.84500000000001, 24.93 134.055, 24.93 134.055, 15.749999999999998 127.84500000000001, 15.749999999999998 127.84500000000001, 10.62 141.75000000000003, 10.62 141.75000000000003, 0 169.38, 0 169.38, 38.25000000000001 180, 38.25000000000001 180, 50.805000000000014 166.86, 50.805000000000014 166.86, 63.945000000000014 180, 63.945000000000014 180, 76.50000000000001 169.38, 76.50000000000001 169.38, 103.50000000000001 180, 103.50000000000001 180, 116.05500000000002 166.86, 116.05500000000002 166.86, 129.19500000000002 180, 129.19500000000002 180, 141.75000000000003 169.38, 141.75000000000003 169.38000000000002, 180 141.75000000000003, 180 141.75000000000003, 169.38 127.84500000000001, 169.38 127.84500000000001, 164.25 134.055, 164.25 134.055, 155.07 127.84500000000001, 155.07 127.84500000000001, 145.89 117.40500000000002, 145.89 117.40500000000002, 155.07 111.19500000000002, 155.07 111.19500000000002, 164.25 117.40500000000002, 164.25 117.40500000000002, 169.38 103.50000000000001, 169.38 103.50000000000001, 180 76.50000000000001, 180 76.50000000000001, 169.38 62.59500000000001, 169.38 62.59500000000001, 164.25 68.805, 164.25 68.805, 155.07 62.59500000000001, 155.07 62.59500000000001, 145.89 52.155000000000015, 145.89 52.155000000000015, 155.07 45.945000000000014, 155.07 45.945000000000014, 164.25 52.155000000000015, 164.25 52.155000000000015, 169.38 38.25000000000001, 169.38 38.25000000000001, 180 10.62, 180.00000000000003 10.62, 141.75000000000003 0, 141.75000000000003 0, 129.19500000000002 13.139999999999999, 129.19500000000002 13.139999999999999, 116.05500000000002 0, 116.05500000000002 0, 103.50000000000001 10.62, 103.50000000000001 10.62, 76.50000000000001 0, 76.50000000000001 0, 63.945000000000014 13.139999999999999, 63.945000000000014 13.139999999999999, 50.805000000000014 0, 50.805000000000014 0, 38.25000000000001 10.62, 38.25000000000001 "
       id="polygon10" />
  </g>
  <!-- Left-->
  <g
     transform="translate(382.5, 22.5) "
     id="g12">
    <polygon
       style="stroke:#000000; fill:none; stroke-width:0.9"
       points="0, 10.62 38.25000000000001, 10.62 38.25000000000001, 0 50.805000000000014, 0 50.805000000000014, 13.139999999999999 63.945000000000014, 13.139999999999999 63.945000000000014, 0 76.50000000000001, 0 76.50000000000001, 10.62 103.50000000000001, 10.62 103.50000000000001, 0 116.05500000000002, 0 116.05500000000002, 13.139999999999999 129.19500000000002, 13.139999999999999 129.19500000000002, 0 141.75000000000003, 0 141.75000000000003, 10.62 180, 10.62 180, 38.25000000000001 169.38, 38.25000000000001 169.38, 52.155000000000015 164.25, 52.155000000000015 164.25, 45.945000000000014 155.07, 45.945000000000014 155.07, 52.155000000000015 145.89, 52.155000000000015 145.89, 62.59500000000001 155.07, 62.59500000000001 155.07, 68.805 164.25, 68.805 164.25, 62.59500000000001 169.38, 62.59500000000001 169.38, 76.50000000000001 180, 76.50000000000001 180, 103.50000000000001 169.38, 103.50000000000001 169.38, 117.40500000000002 164.25, 117.40500000000002 164.25, 111.19500000000002 155.07, 111.19500000000002 155.07, 117.40500000000002 145.89, 117.40500000000002 145.89, 127.84500000000001 155.07, 127.84500000000001 155.07, 134.055 164.25, 134.055 164.25, 127.84500000000001 169.38, 127.84500000000001 169.38, 141.75000000000003 180, 141.75000000000003 180.00000000000003, 169.38 141.75000000000003, 169.38 141.75000000000003, 180 129.19500000000002, 180 129.19500000000002, 166.86 116.05500000000002, 166.86 116.05500000000002, 180 103.50000000000001, 180 103.50000000000001, 169.38 76.50000000000001, 169.38 76.50000000000001, 180 63.945000000000014, 180 63.945000000000014, 166.86 50.805000000000014, 166.86 50.805000000000014, 180 38.25000000000001, 180 38.25000000000001, 169.38 0, 169.38000000000002 0, 141.75000000000003 10.62, 141.75000000000003 10.62, 127.84500000000001 15.749999999999998, 127.84500000000001 15.749999999999998, 134.055 24.93, 134.055 24.93, 127.84500000000001 34.11, 127.84500000000001 34.11, 117.40500000000002 24.93, 117.40500000000002 24.93, 111.19500000000002 15.749999999999998, 111.19500000000002 15.749999999999998, 117.40500000000002 10.62, 117.40500000000002 10.62, 103.50000000000001 0, 103.50000000000001 0, 76.50000000000001 10.62, 76.50000000000001 10.62, 62.59500000000001 15.749999999999998, 62.59500000000001 15.749999999999998, 68.805 24.93, 68.805 24.93, 62.59500000000001 34.11, 62.59500000000001 34.11, 52.155000000000015 24.93, 52.155000000000015 24.93, 45.945000000000014 15.749999999999998, 45.945000000000014 15.749999999999998, 52.155000000000015 10.62, 52.155000000000015 10.62, 38.25000000000001 0, 38.25000000000001 "
       id="polygon14" />
  </g>
  <!-- Right-->
  <g
     transform="translate(382.5, 202.5) "
     id="g16">
    <polygon
       style="stroke:#000000; fill:none; stroke-width:0.9"
       points="0, 10.62 38.25000000000001, 10.62 38.25000000000001, 0 50.805000000000014, 0 50.805000000000014, 13.139999999999999 63.945000000000014, 13.139999999999999 63.945000000000014, 0 76.50000000000001, 0 76.50000000000001, 10.62 103.50000000000001, 10.62 103.50000000000001, 0 116.05500000000002, 0 116.05500000000002, 13.139999999999999 129.19500000000002, 13.139999999999999 129.19500000000002, 0 141.75000000000003, 0 141.75000000000003, 10.62 180, 10.62 180, 38.25000000000001 169.38, 38.25000000000001 169.38, 52.155000000000015 164.25, 52.155000000000015 164.25, 45.945000000000014 155.07, 45.945000000000014 155.07, 52.155000000000015 145.89, 52.155000000000015 145.89, 62.59500000000001 155.07, 62.59500000000001 155.07, 68.805 164.25, 68.805 164.25, 62.59500000000001 169.38, 62.59500000000001 169.38, 76.50000000000001 180, 76.50000000000001 180, 103.50000000000001 169.38, 103.50000000000001 169.38, 117.40500000000002 164.25, 117.40500000000002 164.25, 111.19500000000002 155.07, 111.19500000000002 155.07, 117.40500000000002 145.89, 117.40500000000002 145.89, 127.84500000000001 155.07, 127.84500000000001 155.07, 134.055 164.25, 134.055 164.25, 127.84500000000001 169.38, 127.84500000000001 169.38, 141.75000000000003 180, 141.75000000000003 180.00000000000003, 169.38 141.75000000000003, 169.38 141.75000000000003, 180 129.19500000000002, 180 129.19500000000002, 166.86 116.05500000000002, 166.86 116.05500000000002, 180 103.50000000000001, 180 103.50000000000001, 169.38 76.50000000000001, 169.38 76.50000000000001, 180 63.945000000000014, 180 63.945000000000014, 166.86 50.805000000000014, 166.86 50.805000000000014, 180 38.25000000000001, 180 38.25000000000001, 169.38 0, 169.38000000000002 0, 141.75000000000003 10.62, 141.75000000000003 10.62, 127.84500000000001 15.749999999999998, 127.84500000000001 15.749999999999998, 134.055 24.93, 134.055 24.93, 127.84500000000001 34.11, 127.84500000000001 34.11, 117.40500000000002 24.93, 117.40500000000002 24.93, 111.19500000000002 15.749999999999998, 111.19500000000002 15.749999999999998, 117.40500000000002 10.62, 117.40500000000002 10.62, 103.50000000000001 0, 103.50000000000001 0, 76.50000000000001 10.62, 76.50000000000001 10.62, 62.59500000000001 15.749999999999998, 62.59500000000001 15.749999999999998, 68.805 24.93, 68.805 24.93, 62.59500000000001 34.11, 62.59500000000001 34.11, 52.155000000000015 24.93, 52.155000000000015 24.93, 45.945000000000014 15.749999999999998, 45.945000000000014 15.749999999999998, 52.155000000000015 10.62, 52.155000000000015 10.62, 38.25000000000001 0, 38.25000000000001 "
       id="polygon18" />
  </g>
  <!-- Top-->
  <g
     transform="translate(22.5, 202.5) "
     id="g20">
    <polygon
       style="stroke:#000000; fill:none; stroke-width:0.9"
       points="0, 10.62 38.25000000000001, 10.62 38.25000000000001, 0 50.805000000000014, 0 50.805000000000014, 13.139999999999999 63.945000000000014, 13.139999999999999 63.945000000000014, 0 76.50000000000001, 0 76.50000000000001, 10.62 103.50000000000001, 10.62 103.50000000000001, 0 116.05500000000002, 0 116.05500000000002, 13.139999999999999 129.19500000000002, 13.139999999999999 129.19500000000002, 0 141.75000000000003, 0 141.75000000000003, 10.62 180, 10.62 180, 38.25000000000001 169.38, 38.25000000000001 169.38, 52.155000000000015 164.25, 52.155000000000015 164.25, 45.945000000000014 155.07, 45.945000000000014 155.07, 52.155000000000015 145.89, 52.155000000000015 145.89, 62.59500000000001 155.07, 62.59500000000001 155.07, 68.805 164.25, 68.805 164.25, 62.59500000000001 169.38, 62.59500000000001 169.38, 76.50000000000001 180, 76.50000000000001 180, 103.50000000000001 169.38, 103.50000000000001 169.38, 117.40500000000002 164.25, 117.40500000000002 164.25, 111.19500000000002 155.07, 111.19500000000002 155.07, 117.40500000000002 145.89, 117.40500000000002 145.89, 127.84500000000001 155.07, 127.84500000000001 155.07, 134.055 164.25, 134.055 164.25, 127.84500000000001 169.38, 127.84500000000001 169.38, 141.75000000000003 180, 141.75000000000003 180.00000000000003, 169.38 141.75000000000003, 169.38 141.75000000000003, 180 129.19500000000002, 180 129.19500000000002, 166.86 116.05500000000002, 166.86 116.05500000000002, 180 103.50000000000001, 180 103.50000000000001, 169.38 76.50000000000001, 169.38 76.50000000000001, 180 63.945000000000014, 180 63.945000000000014, 166.86 50.805000000000014, 166.86 50.805000000000014, 180 38.25000000000001, 180 38.25000000000001, 169.38 0, 169.38000000000002 0, 141.75000000000003 10.62, 141.75000000000003 10.62, 127.84500000000001 15.749999999999998, 127.84500000000001 15.749999999999998, 134.055 24.93, 134.055 24.93, 127.84500000000001 34.11, 127.84500000000001 34.11, 117.40500000000002 24.93, 117.40500000000002 24.93, 111.19500000000002 15.749999999999998, 111.19500000000002 15.749999999999998, 117.40500000000002 10.62, 117.40500000000002 10.62, 103.50000000000001 0, 103.50000000000001 0, 76.50000000000001 10.62, 76.50000000000001 10.62, 62.59500000000001 15.749999999999998, 62.59500000000001 15.749999999999998, 68.805 24.93, 68.805 24.93, 62.59500000000001 34.11, 62.59500000000001 34.11, 52.155000000000015 24.93, 52.155000000000015 24.93, 45.945000000000014 15.749999999999998, 45.945000000000014 15.749999999999998, 52.155000000000015 10.62, 52.155000000000015 10.62, 38.25000000000001 0, 38.25000000000001 "
       id="polygon22" />
  </g>
  <!-- Bottom-->
  <g
     transform="translate(202.5, 202.5) "
     id="g24">
    <polygon
       style="stroke:#000000; fill:none; stroke-width:0.9"
       points="0, 10.62 38.25000000000001, 10.62 38.25000000000001, 0 50.805000000000014, 0 50.805000000000014, 13.139999999999999 63.945000000000014, 13.139999999999999 63.945000000000014, 0 76.50000000000001, 0 76.50000000000001, 10.62 103.50000000000001, 10.62 103.50000000000001, 0 116.05500000000002, 0 116.05500000000002, 13.139999999999999 129.19500000000002, 13.139999999999999 129.19500000000002, 0 141.75000000000003, 0 141.75000000000003, 10.62 180, 10.62 180, 38.25000000000001 169.38, 38.25000000000001 169.38, 52.155000000000015 164.25, 52.155000000000015 164.25, 45.945000000000014 155.07, 45.945000000000014 155.07, 52.155000000000015 145.89, 52.155000000000015 145.89, 62.59500000000001 155.07, 62.59500000000001 155.07, 68.805 164.25, 68.805 164.25, 62.59500000000001 169.38, 62.59500000000001 169.38, 76.50000000000001 180, 76.50000000000001 180, 103.50000000000001 169.38, 103.50000000000001 169.38, 117.40500000000002 164.25, 117.40500000000002 164.25, 111.19500000000002 155.07, 111.19500000000002 155.07, 117.40500000000002 145.89, 117.40500000000002 145.89, 127.84500000000001 155.07, 127.84500000000001 155.07, 134.055 164.25, 134.055 164.25, 127.84500000000001 169.38, 127.84500000000001 169.38, 141.75000000000003 180, 141.75000000000003 180.00000000000003, 169.38 141.75000000000003, 169.38 141.75000000000003, 180 129.19500000000002, 180 129.19500000000002, 166.86 116.05500000000002, 166.86 116.05500000000002, 180 103.50000000000001, 180 103.50000000000001, 169.38 76.50000000000001, 169.38 76.50000000000001, 180 63.945000000000014, 180 63.945000000000014, 166.86 50.805000000000014, 166.86 50.805000000000014, 180 38.25000000000001, 180 38.25000000000001, 169.38 0, 169.38000000000002 0, 141.75000000000003 10.62, 141.75000000000003 10.62, 127.84500000000001 15.749999999999998, 127.84500000000001 15.749999999999998, 134.055 24.93, 134.055 24.93, 127.84500000000001 34.11, 127.84500000000001 34.11, 117.40500000000002 24.93, 117.40500000000002 24.93, 111.19500000000002 15.749999999999998, 111.19500000000002 15.749999999999998, 117.40500000000002 10.62, 117.40500000000002 10.62, 103.50000000000001 0, 103.50000000000001 0, 76.50000000000001 10.62, 76.50000000000001 10.62, 62.59500000000001 15.749999999999998, 62.59500000000001 15.749999999999998, 68.805 24.93, 68.805 24.93, 62.59500000000001 34.11, 62.59500000000001 34.11, 52.155000000000015 24.93, 52.155000000000015 24.93, 45.945000000000014 15.749999999999998, 45.945000000000014 15.749999999999998, 52.155000000000015 10.62, 52.155000000000015 10.62, 38.25000000000001 0, 38.25000000000001 "
       id="polygon26" />
  </g>
  <text
     xml:space="preserve"
     style="font-style:normal;font-variant:normal;font-weight:normal;font-stretch:normal;font-size:180px;line-height:125%;font-family:FabFont;-inkscape-font-specification:FabFont;letter-spacing:0px;word-spacing:0px;fill:#000000;fill-opacity:1;stroke:none;stroke-width:1px;stroke-linecap:butt;stroke-linejoin:miter;stroke-opacity:1"
     x="95.400002"
     y="146.7"
     id="text3360"
     sodipodi:linespacing="125%"><tspan
       sodipodi:role="line"
       id="tspan3362"
       x="95.400002"
       y="146.7"
       style="font-size:90px">1</tspan></text>
  <text
     xml:space="preserve"
     style="font-style:normal;font-variant:normal;font-weight:normal;font-stretch:normal;font-size:180px;line-height:125%;font-family:FabFont;-inkscape-font-specification:FabFont;letter-spacing:0px;word-spacing:0px;fill:#000000;fill-opacity:1;stroke:none;stroke-width:1px;stroke-linecap:butt;stroke-linejoin:miter;stroke-opacity:1"
     x="260.10001"
     y="146.7"
     id="text3360-2"
     sodipodi:linespacing="125%"><tspan
       sodipodi:role="line"
       id="tspan3362-4"
       x="260.10001"
       y="146.7"
       style="font-size:90px">2</tspan></text>
  <text
     xml:space="preserve"
     style="font-style:normal;font-variant:normal;font-weight:normal;font-stretch:normal;font-size:180px;line-height:125%;font-family:FabFont;-inkscape-font-specification:FabFont;letter-spacing:0px;word-spacing:0px;fill:#000000;fill-opacity:1;stroke:none;stroke-width:1px;stroke-linecap:butt;stroke-linejoin:miter;stroke-opacity:1"
     x="440.10001"
     y="146.7"
     id="text3360-6"
     sodipodi:linespacing="125%"><tspan
       sodipodi:role="line"
       id="tspan3362-5"
       x="440.10001"
       y="146.7"
       style="font-size:90px">3</tspan></text>
  <text
     xml:space="preserve"
     style="font-style:normal;font-variant:normal;font-weight:normal;font-stretch:normal;font-size:180px;line-height:125%;font-family:FabFont;-inkscape-font-specification:FabFont;letter-spacing:0px;word-spacing:0px;fill:#000000;fill-opacity:1;stroke:none;stroke-width:1px;stroke-linecap:butt;stroke-linejoin:miter;stroke-opacity:1"
     x="440.10001"
     y="326.70001"
     id="text3360-69"
     sodipodi:linespacing="125%"><tspan
       sodipodi:role="line"
       id="tspan3362-0"
       x="440.10001"
       y="326.70001"
       style="font-size:90px">6</tspan></text>
  <text
     xml:space="preserve"
     style="font-style:normal;font-variant:normal;font-weight:normal;font-stretch:normal;font-size:180px;line-height:125%;font-family:FabFont;-inkscape-font-specification:FabFont;letter-spacing:0px;word-spacing:0px;fill:#000000;fill-opacity:1;stroke:none;stroke-width:1px;stroke-linecap:butt;stroke-linejoin:miter;stroke-opacity:1"
     x="260.10001"
     y="326.70001"
     id="text3360-0"
     sodipodi:linespacing="125%"><tspan
       sodipodi:role="line"
       id="tspan3362-6"
       x="260.10001"
       y="326.70001"
       style="font-size:90px">5</tspan></text>
  <text
     xml:space="preserve"
     style="font-style:normal;font-variant:normal;font-weight:normal;font-stretch:normal;font-size:180px;line-height:125%;font-family:FabFont;-inkscape-font-specification:FabFont;letter-spacing:0px;word-spacing:0px;fill:#000000;fill-opacity:1;stroke:none;stroke-width:1px;stroke-linecap:butt;stroke-linejoin:miter;stroke-opacity:1"
     x="80.099998"
     y="326.70001"
     id="text3360-3"
     sodipodi:linespacing="125%"><tspan
       sodipodi:role="line"
       id="tspan3362-2"
       x="80.099998"
       y="326.70001"
       style="font-size:90px">4</tspan></text>
</svg>
