<?xml version="1.0" encoding="UTF-8" standalone="no"?>
<svg
   xmlns:dc="http://purl.org/dc/elements/1.1/"
   xmlns:cc="http://creativecommons.org/ns#"
   xmlns:rdf="http://www.w3.org/1999/02/22-rdf-syntax-ns#"
   xmlns:svg="http://www.w3.org/2000/svg"
   xmlns="http://www.w3.org/2000/svg"
   xmlns:sodipodi="http://sodipodi.sourceforge.net/DTD/sodipodi-0.dtd"
   xmlns:inkscape="http://www.inkscape.org/namespaces/inkscape"
   width="553.7mm"
   height="126.2mm"
   viewBox="0 0 553.7 126.2"
   version="1.1"
   id="svg2"
   inkscape:version="0.91pre4 r13712"
   sodipodi:docname="Vikingbox.svg">
  <metadata
     id="metadata74">
    <rdf:RDF>
      <cc:Work
         rdf:about="">
        <dc:format>image/svg+xml</dc:format>
        <dc:type
           rdf:resource="http://purl.org/dc/dcmitype/StillImage" />
        <dc:title></dc:title>
      </cc:Work>
    </rdf:RDF>
  </metadata>
  <defs
     id="defs72" />
  <sodipodi:namedview
     pagecolor="#ffffff"
     bordercolor="#666666"
     borderopacity="1"
     objecttolerance="10"
     gridtolerance="10"
     guidetolerance="10"
     inkscape:pageopacity="0"
     inkscape:pageshadow="2"
     inkscape:window-width="1920"
     inkscape:window-height="1017"
     id="namedview70"
     showgrid="false"
     inkscape:zoom="0.5"
     inkscape:cx="1241.8568"
     inkscape:cy="111.04616"
     inkscape:window-x="-8"
     inkscape:window-y="-8"
     inkscape:window-maximized="1"
     inkscape:current-layer="svg2" />
  <text
     x="9"
     y="6"
     font-size="1.2mm"
     id="text4"
     style="font-size:4.25196886px;fill:#000000" />
  <!-- wedge -->
  <path
     d="M308.6,96.2      l 0,-5.08   a 0.9525,0.9525 0 0,1 0.762,-0.762    l 12.065,-1.17475   l 0,-1.016   a0.9525,0.9525 0 0,1 0.762,-0.762   l 2.54,0   a0.9525,0.9525 0 0,1 0.762,0.762   l 0,7.9375    L 308.6,96.2     "
     stroke="black"
     stroke-width="0.3"
     fill="none"
     id="path6" />
  <circle
     cx="310.6955"
     cy="93.025"
     r="0.8255"
     stroke="blueviolet"
     stroke-width="0.3"
     fill="none"
     id="circle8" />
  <!-- wedge -->
  <path
     d="M327.65,96.2      l 0,-5.08   a 0.9525,0.9525 0 0,1 0.762,-0.762    l 12.065,-1.17475   l 0,-1.016   a0.9525,0.9525 0 0,1 0.762,-0.762   l 2.54,0   a0.9525,0.9525 0 0,1 0.762,0.762   l 0,7.9375    L 327.65,96.2     "
     stroke="black"
     stroke-width="0.3"
     fill="none"
     id="path10" />
  <circle
     cx="329.7455"
     cy="93.025"
     r="0.8255"
     stroke="blueviolet"
     stroke-width="0.3"
     fill="none"
     id="circle12" />
  <!-- wedge -->
  <path
     d="M346.7,96.2      l 0,-5.08   a 0.9525,0.9525 0 0,1 0.762,-0.762    l 12.065,-1.17475   l 0,-1.016   a0.9525,0.9525 0 0,1 0.762,-0.762   l 2.54,0   a0.9525,0.9525 0 0,1 0.762,0.762   l 0,7.9375    L 346.7,96.2     "
     stroke="black"
     stroke-width="0.3"
     fill="none"
     id="path14" />
  <circle
     cx="348.7955"
     cy="93.025"
     r="0.8255"
     stroke="blueviolet"
     stroke-width="0.3"
     fill="none"
     id="circle16" />
  <!-- wedge -->
  <path
     d="M365.75,96.2      l 0,-5.08   a 0.9525,0.9525 0 0,1 0.762,-0.762    l 12.065,-1.17475   l 0,-1.016   a0.9525,0.9525 0 0,1 0.762,-0.762   l 2.54,0   a0.9525,0.9525 0 0,1 0.762,0.762   l 0,7.9375    L 365.75,96.2     "
     stroke="black"
     stroke-width="0.3"
     fill="none"
     id="path18" />
  <circle
     cx="367.8455"
     cy="93.025"
     r="0.8255"
     stroke="blueviolet"
     stroke-width="0.3"
     fill="none"
     id="circle20" />
  <!-- wedge -->
  <path
     d="M384.8,96.2      l 0,-5.08   a 0.9525,0.9525 0 0,1 0.762,-0.762    l 12.065,-1.17475   l 0,-1.016   a0.9525,0.9525 0 0,1 0.762,-0.762   l 2.54,0   a0.9525,0.9525 0 0,1 0.762,0.762   l 0,7.9375    L 384.8,96.2     "
     stroke="black"
     stroke-width="0.3"
     fill="none"
     id="path22" />
  <circle
     cx="386.8955"
     cy="93.025"
     r="0.8255"
     stroke="blueviolet"
     stroke-width="0.3"
     fill="none"
     id="circle24" />
  <!-- wedge -->
  <path
     d="M403.85,96.2      l 0,-5.08   a 0.9525,0.9525 0 0,1 0.762,-0.762    l 12.065,-1.17475   l 0,-1.016   a0.9525,0.9525 0 0,1 0.762,-0.762   l 2.54,0   a0.9525,0.9525 0 0,1 0.762,0.762   l 0,7.9375    L 403.85,96.2     "
     stroke="black"
     stroke-width="0.3"
     fill="none"
     id="path26" />
  <circle
     cx="405.9455"
     cy="93.025"
     r="0.8255"
     stroke="blueviolet"
     stroke-width="0.3"
     fill="none"
     id="circle28" />
  <!-- wedge -->
  <path
     d="M422.9,96.2      l 0,-5.08   a 0.9525,0.9525 0 0,1 0.762,-0.762    l 12.065,-1.17475   l 0,-1.016   a0.9525,0.9525 0 0,1 0.762,-0.762   l 2.54,0   a0.9525,0.9525 0 0,1 0.762,0.762   l 0,7.9375    L 422.9,96.2     "
     stroke="black"
     stroke-width="0.3"
     fill="none"
     id="path30" />
  <circle
     cx="424.9955"
     cy="93.025"
     r="0.8255"
     stroke="blueviolet"
     stroke-width="0.3"
     fill="none"
     id="circle32" />
  <!-- wedge -->
  <path
     d="M441.95,96.2      l 0,-5.08   a 0.9525,0.9525 0 0,1 0.762,-0.762    l 12.065,-1.17475   l 0,-1.016   a0.9525,0.9525 0 0,1 0.762,-0.762   l 2.54,0   a0.9525,0.9525 0 0,1 0.762,0.762   l 0,7.9375    L 441.95,96.2     "
     stroke="black"
     stroke-width="0.3"
     fill="none"
     id="path34" />
  <circle
     cx="444.0455"
     cy="93.025"
     r="0.8255"
     stroke="blueviolet"
     stroke-width="0.3"
     fill="none"
     id="circle36" />
  <!-- wedge -->
  <path
     d="M308.6,108.9      l 0,-5.08   a 0.9525,0.9525 0 0,1 0.762,-0.762    l 12.065,-1.17475   l 0,-1.016   a0.9525,0.9525 0 0,1 0.762,-0.762   l 2.54,0   a0.9525,0.9525 0 0,1 0.762,0.762   l 0,7.9375    L 308.6,108.9     "
     stroke="black"
     stroke-width="0.3"
     fill="none"
     id="path38" />
  <circle
     cx="310.6955"
     cy="105.725"
     r="0.8255"
     stroke="blueviolet"
     stroke-width="0.3"
     fill="none"
     id="circle40" />
  <!-- wedge -->
  <path
     d="M327.65,108.9      l 0,-5.08   a 0.9525,0.9525 0 0,1 0.762,-0.762    l 12.065,-1.17475   l 0,-1.016   a0.9525,0.9525 0 0,1 0.762,-0.762   l 2.54,0   a0.9525,0.9525 0 0,1 0.762,0.762   l 0,7.9375    L 327.65,108.9     "
     stroke="black"
     stroke-width="0.3"
     fill="none"
     id="path42" />
  <circle
     cx="329.7455"
     cy="105.725"
     r="0.8255"
     stroke="blueviolet"
     stroke-width="0.3"
     fill="none"
     id="circle44" />
  <rect
     x="10"
     y="10"
     rx="3"
     ry="3"
     width="60.325"
     fill="none"
     height="60.325"
     stroke="black"
     stroke-width="0.3"
     id="rect46" />
  <path
     d="M10,10 m 4.7625, 30.1625 l 0,4.7625 l 3.175,0 l 0,-9.525 l -3.175,0 l 0,4.7625 M10,70.325  m 30.1625,-4.7625 l 4.7625,0 l 0,-3.175 l -9.525,0 l 0,3.175 l 4.7625,0 M70.325,70.325  m -4.7625,-30.1625 l 0,-4.7625 l -3.175,0 l 0,9.525 l 3.175,0 l 0,-4.7625 M70.325,10  m -30.1625,4.7625 l -4.7625,0 l 0,3.175 l 9.525,0 l 0,-3.175 l -4.7625,0 "
     stroke="blueviolet"
     stroke-width="0.3"
     fill="none"
     id="path48" />
  <rect
     x="80.325"
     y="10"
     rx="3"
     ry="3"
     width="60.325"
     fill="none"
     height="60.325"
     stroke="black"
     stroke-width="0.3"
     id="rect50" />
  <path
     d="M80.325,10 m 4.7625, 30.1625 l 0,4.7625 l 3.175,0 l 0,-9.525 l -3.175,0 l 0,4.7625 M80.325,70.325  m 30.1625,-4.7625 l 4.7625,0 l 0,-3.175 l -9.525,0 l 0,3.175 l 4.7625,0 M140.65,70.325  m -4.7625,-30.1625 l 0,-4.7625 l -3.175,0 l 0,9.525 l 3.175,0 l 0,-4.7625 M140.65,10  m -30.1625,4.7625 l -4.7625,0 l 0,3.175 l 9.525,0 l 0,-3.175 l -4.7625,0 "
     stroke="blueviolet"
     stroke-width="0.3"
     fill="none"
     id="path52" />
  <path
     d="M157.9125,10 l 0,4.7625 l 22.225,0 l 0,3.175 l -22.225,0 l 0,17.4625 l -7.5,0 a 1,1 0 0,0 0,9.525 l 7.5,0 l 0,4.7625l 0,12.7 l 22.225,0 l 0,3.175 l -22.225,0 l 0,4.7625 l 44.45,0  l 0,-4.7625 l 0,-3.175  l 0,-17.4625  l 7.5,0 a 1,1 0 0,0 0,-9.525 l -7.5,0  l 0,-4.7625 l 0,-12.7 l 0,-4.7625 l 0,-3.175  l -44.45,0 "
     stroke="black"
     stroke-width="0.3"
     fill="none"
     id="path54" />
  <path
     d="M157.9125,10 m 0,4.7625 m 0,3.175  m 0,17.4625 m 0,4.7625  m -2.975,0  l 0,-1.5875 l -6.35,0 l 0,3.175 l 6.35,0 l 0,-1.5875  m 2.975,0  m 0,4.7625  m 0,4.7625m 0,12.7 m 0,3.175 m 0,4.7625 m 44.45,0  m 0,-4.7625 m 0,-3.175  m 0,-17.4625  m 0,-4.7625  m 2.975,0  l 0,-1.5875 l 6.35,0 l 0,3.175 l -6.35,0 l 0,-1.5875  m -2.975,0  m 0,-4.7625  m 0,-4.7625m 0,-12.7 m 0,-4.7625 m 0,-3.175  m -44.45,0 "
     stroke="blueviolet"
     stroke-width="0.3"
     fill="none"
     id="path56" />
  <path
     d="M236.8875,10 l 0,4.7625 l 0,3.175  l 0,17.4625 l -7.5,0 a 1,1 0 0,0 0,9.525 l 7.5,0 l 0,4.7625l 0,12.7 l 0,3.175 l 0,4.7625 l 44.45,0  l 0,-4.7625 l -22.225,0 l 0,-3.175 l 22.225,0   l 0,-17.4625  l 7.5,0 a 1,1 0 0,0 0,-9.525 l -7.5,0  l 0,-4.7625 l 0,-12.7  l -22.225,0 l 0,-3.175 l 22.225,0 l 0,-4.7625  l -44.45,0 "
     stroke="black"
     stroke-width="0.3"
     fill="none"
     id="path58" />
  <path
     d="M236.8875,10 m 0,4.7625 m 0,3.175  m 0,17.4625 m 0,4.7625  m -2.975,0  l 0,-1.5875 l -6.35,0 l 0,3.175 l 6.35,0 l 0,-1.5875  m 2.975,0  m 0,4.7625  m 0,4.7625m 0,12.7 m 0,3.175 m 0,4.7625 m 44.45,0  m 0,-4.7625 m 0,-3.175  m 0,-17.4625  m 0,-4.7625  m 2.975,0  l 0,-1.5875 l 6.35,0 l 0,3.175 l -6.35,0 l 0,-1.5875  m -2.975,0  m 0,-4.7625  m 0,-4.7625m 0,-12.7 m 0,-4.7625 m 0,-3.175  m -44.45,0 "
     stroke="blueviolet"
     stroke-width="0.3"
     fill="none"
     id="path60" />
  <path
     d="M315.8625,10 l 0,4.7625 l 0,3.175  l 0,17.4625 l -7.5,0 a 1,1 0 0,0 0,9.525 l 7.5,0 l 0,4.7625l 0,12.7 l 0,3.175 l 0,4.7625 l 44.45,0  l 0,-4.7625 l -22.225,0 l 0,-3.175 l 22.225,0   l 0,-17.4625  l 7.5,0 a 1,1 0 0,0 0,-9.525 l -7.5,0  l 0,-4.7625 l 0,-12.7  l -22.225,0 l 0,-3.175 l 22.225,0 l 0,-4.7625  l -44.45,0 "
     stroke="black"
     stroke-width="0.3"
     fill="none"
     id="path62" />
  <path
     d="M315.8625,10 m 0,4.7625 m 0,3.175  m 0,17.4625 m 0,4.7625  m -2.975,0  l 0,-1.5875 l -6.35,0 l 0,3.175 l 6.35,0 l 0,-1.5875  m 2.975,0  m 0,4.7625  m 0,4.7625m 0,12.7 m 0,3.175 m 0,4.7625 m 44.45,0  m 0,-4.7625 m 0,-3.175  m 0,-17.4625  m 0,-4.7625  m 2.975,0  l 0,-1.5875 l 6.35,0 l 0,3.175 l -6.35,0 l 0,-1.5875  m -2.975,0  m 0,-4.7625  m 0,-4.7625m 0,-12.7 m 0,-4.7625 m 0,-3.175  m -44.45,0 "
     stroke="blueviolet"
     stroke-width="0.3"
     fill="none"
     id="path64" />
  <path
     d="M394.8375,10 l 0,4.7625 l 22.225,0 l 0,3.175 l -22.225,0  l 0,17.4625 l -7.5,0 a 1,1 0 0,0 0,9.525 l 7.5,0 l 0,4.7625l 0,12.7 l 22.225,0 l 0,3.175 l -22.225,0 l 0,4.7625 l 44.45,0  l 0,-4.7625 l 0,-3.175   l 0,-17.4625  l 7.5,0 a 1,1 0 0,0 0,-9.525 l -7.5,0  l 0,-4.7625 l 0,-12.7  l 0,-3.175 l 0,-4.7625  l -44.45,0 "
     stroke="black"
     stroke-width="0.3"
     fill="none"
     id="path66" />
  <path
     d="M394.8375,10 m 0,4.7625 m 0,3.175  m 0,17.4625 m 0,4.7625  m -2.975,0  l 0,-1.5875 l -6.35,0 l 0,3.175 l 6.35,0 l 0,-1.5875  m 2.975,0  m 0,4.7625  m 0,4.7625m 0,12.7 m 0,3.175 m 0,4.7625 m 44.45,0  m 0,-4.7625 m 0,-3.175  m 0,-17.4625  m 0,-4.7625  m 2.975,0  l 0,-1.5875 l 6.35,0 l 0,3.175 l -6.35,0 l 0,-1.5875  m -2.975,0  m 0,-4.7625  m 0,-4.7625m 0,-12.7 m 0,-4.7625 m 0,-3.175  m -44.45,0 "
     stroke="blueviolet"
     stroke-width="0.3"
     fill="none"
     id="path68" />
  <text
     xml:space="preserve"
     style="font-style:normal;font-variant:normal;font-weight:normal;font-stretch:normal;font-size:25.40000153px;line-height:125%;font-family:FabFont;-inkscape-font-specification:FabFont;letter-spacing:0px;word-spacing:0px;fill:#000000;fill-opacity:1;stroke:none;stroke-width:1px;stroke-linecap:butt;stroke-linejoin:miter;stroke-opacity:1"
     x="35.336498"
     y="49.814503"
     id="text3402"
     sodipodi:linespacing="125%"><tspan
       sodipodi:role="line"
       id="tspan3404"
       x="35.336498"
       y="49.814503">1</tspan></text>
  <text
     xml:space="preserve"
     style="font-style:normal;font-variant:normal;font-weight:normal;font-stretch:normal;font-size:25.40000153px;line-height:125%;font-family:FabFont;-inkscape-font-specification:FabFont;letter-spacing:0px;word-spacing:0px;fill:#000000;fill-opacity:1;stroke:none;stroke-width:1px;stroke-linecap:butt;stroke-linejoin:miter;stroke-opacity:1"
     x="101.3435"
     y="49.814503"
     id="text3402-8"
     sodipodi:linespacing="125%"><tspan
       sodipodi:role="line"
       id="tspan3404-6"
       x="101.3435"
       y="49.814503">2</tspan></text>
  <text
     xml:space="preserve"
     style="font-style:normal;font-variant:normal;font-weight:normal;font-stretch:normal;font-size:25.40000153px;line-height:125%;font-family:FabFont;-inkscape-font-specification:FabFont;letter-spacing:0px;word-spacing:0px;fill:#000000;fill-opacity:1;stroke:none;stroke-width:1px;stroke-linecap:butt;stroke-linejoin:miter;stroke-opacity:1"
     x="-49.306503"
     y="189.78949"
     id="text3402-9"
     sodipodi:linespacing="125%"
     transform="matrix(0,-0.99999991,1.0000001,0,0,0)"><tspan
       sodipodi:role="line"
       id="tspan3404-8"
       x="-49.306503"
       y="189.78949">3</tspan></text>
  <text
     xml:space="preserve"
     style="font-style:normal;font-variant:normal;font-weight:normal;font-stretch:normal;font-size:25.40000153px;line-height:125%;font-family:FabFont;-inkscape-font-specification:FabFont;letter-spacing:0px;word-spacing:0px;fill:#000000;fill-opacity:1;stroke:none;stroke-width:1px;stroke-linecap:butt;stroke-linejoin:miter;stroke-opacity:1"
     x="-49.306503"
     y="268.76447"
     id="text3402-9-1"
     sodipodi:linespacing="125%"
     transform="matrix(0,-0.9999999,1.0000001,0,0,0)"><tspan
       sodipodi:role="line"
       id="tspan3404-8-0"
       x="-49.306503"
       y="268.76447">4</tspan></text>
  <text
     xml:space="preserve"
     style="font-style:normal;font-variant:normal;font-weight:normal;font-stretch:normal;font-size:25.40000153px;line-height:125%;font-family:FabFont;-inkscape-font-specification:FabFont;letter-spacing:0px;word-spacing:0px;fill:#000000;fill-opacity:1;stroke:none;stroke-width:1px;stroke-linecap:butt;stroke-linejoin:miter;stroke-opacity:1"
     x="-49.306503"
     y="347.73947"
     id="text3402-9-2"
     sodipodi:linespacing="125%"
     transform="matrix(0,-0.9999999,1.0000001,0,0,0)"><tspan
       sodipodi:role="line"
       id="tspan3404-8-4"
       x="-49.306503"
       y="347.73947">5</tspan></text>
  <text
     xml:space="preserve"
     style="font-style:normal;font-variant:normal;font-weight:normal;font-stretch:normal;font-size:25.40000153px;line-height:125%;font-family:FabFont;-inkscape-font-specification:FabFont;letter-spacing:0px;word-spacing:0px;fill:#000000;fill-opacity:1;stroke:none;stroke-width:1px;stroke-linecap:butt;stroke-linejoin:miter;stroke-opacity:1"
     x="-49.306503"
     y="426.71445"
     id="text3402-9-5"
     sodipodi:linespacing="125%"
     transform="matrix(0,-0.9999999,1.0000001,0,0,0)"><tspan
       sodipodi:role="line"
       id="tspan3404-8-1"
       x="-49.306503"
       y="426.71445">6</tspan></text>
  <flowRoot
     xml:space="preserve"
     id="flowRoot3488"
     style="font-style:normal;font-weight:normal;font-size:60px;line-height:125%;font-family:sans-serif;letter-spacing:0px;word-spacing:0px;fill:#000000;fill-opacity:1;stroke:none;stroke-width:1px;stroke-linecap:butt;stroke-linejoin:miter;stroke-opacity:1"
     transform="matrix(0.28222224,0,0,0.28222222,-1.7225479e-5,0)"><flowRegion
       id="flowRegion3490"><rect
         id="rect3492"
         width="289.91379"
         height="393.15137"
         x="1650.3872"
         y="31.386557" /></flowRegion><flowPara
       id="flowPara3494"
       style="font-size:17.5px">&quot;Viking&quot; finger box made at imagio.dk/boxmaker </flowPara><flowPara
       style="font-size:17.5px"
       id="flowPara3498">By Nicolas Padfield, FabLab RUC / illutron. </flowPara><flowPara
       style="font-size:17.5px"
       id="flowPara3500"></flowPara><flowPara
       style="font-size:17.5px"
       id="flowPara3502">CC-BY-NC. Free for noncommercial use and commercial use under 10 items/year. </flowPara><flowPara
       style="font-size:17.5px"
       id="flowPara3504"></flowPara><flowPara
       style="font-size:17.5px"
       id="flowPara3506">Inside Height: 44.45 mm </flowPara><flowPara
       style="font-size:17.5px"
       id="flowPara3508">Inside Width: 44.45 mm </flowPara><flowPara
       style="font-size:17.5px"
       id="flowPara3510">Inside depth: 44.45 mm</flowPara><flowPara
       style="font-size:17.5px"
       id="flowPara3512">Material thickness: 3.175 mm</flowPara></flowRoot></svg>
